HIERARCHY
ROOT Hips
{
   OFFSET 0.00000 0.00000 0.00000
   CHANNELS 6 Xposition Yposition Zposition Zrotation Xrotation Yrotation
   JOINT Spine
   {
      OFFSET 0.000000 10.701450 0.000000
      CHANNELS 3 Zrotation Xrotation Yrotation
      JOINT Spine1
      {
         OFFSET -0.000000 23.091659 0.114894
         CHANNELS 3 Zrotation Xrotation Yrotation
         JOINT HEad
         {
            OFFSET 0.000000 7.860744 0.010206
            CHANNELS 3 Zrotation Xrotation Yrotation
            End Site
            {
               OFFSET -0.261000 11.496780 2.262555
            }
         }
         JOINT LeftShoulder1
         {
            OFFSET 8.091000 -0.326025 -0.198000
            CHANNELS 3 Zrotation Xrotation Yrotation
            JOINT LeftArm
            {
               OFFSET 9.254430 -0.003042 0.289908
               CHANNELS 3 Zrotation Xrotation Yrotation
               JOINT LeftForeArm
               {
                  OFFSET 29.490208 0.089226 -1.281906
                  CHANNELS 3 Zrotation Xrotation Yrotation
                  JOINT LeftHand
                  {
                     OFFSET 24.807870 0.076824 0.919944
                     CHANNELS 3 Zrotation Xrotation Yrotation
                     End Site
                     {
                        OFFSET 15.069871 -0.540000 1.352619
                     }
                  }
               }
            }
         }
         JOINT RightShoulder
         {
            OFFSET -8.091000 -0.326025 -0.198000
            CHANNELS 3 Zrotation Xrotation Yrotation
            JOINT RightArm
            {
               OFFSET -9.254430 -0.003042 0.289908
               CHANNELS 3 Zrotation Xrotation Yrotation
               JOINT RightForeArm
               {
                  OFFSET -29.607386 0.089226 -1.281906
                  CHANNELS 3 Zrotation Xrotation Yrotation
                  JOINT RightHand
                  {
                     OFFSET -24.742889 0.076824 0.919944
                     CHANNELS 3 Zrotation Xrotation Yrotation
                     End Site
                     {
                        OFFSET -14.968080 -0.540000 1.352619
                     }
                  }
               }
            }
         }
      }
   }
   JOINT LeftUpLeg
   {
      OFFSET 8.051219 -7.800363 0.091485
      CHANNELS 3 Zrotation Xrotation Yrotation
      JOINT LeftLeg
      {
         OFFSET 0.000000 -39.980428 1.235430
         CHANNELS 3 Zrotation Xrotation Yrotation
         JOINT LeftFoot
         {
            OFFSET -0.228195 -37.883157 -1.314531
            CHANNELS 3 Zrotation Xrotation Yrotation
            JOINT LeftToes
            {
               OFFSET -0.036000 -3.973581 7.649189
               CHANNELS 3 Zrotation Xrotation Yrotation
               End Site
               {
                  OFFSET 0.072000 -0.042705 8.801811
               }
            }
         }
      }
   }
   JOINT RightUpLeg
   {
      OFFSET -8.051219 -7.800363 0.091485
      CHANNELS 3 Zrotation Xrotation Yrotation
      JOINT RightLeg
      {
         OFFSET 0.000000 -39.980428 1.235430
         CHANNELS 3 Zrotation Xrotation Yrotation
         JOINT RightFoot
         {
            OFFSET 0.228195 -37.883157 -1.314531
            CHANNELS 3 Zrotation Xrotation Yrotation
            JOINT RightToes
            {
               OFFSET 0.036000 -3.973581 7.649189
               CHANNELS 3 Zrotation Xrotation Yrotation
               End Site
               {
                  OFFSET -0.072000 -0.123705 8.801811
               }
            }
         }
      }
   }
}
MOTION
Frames: 12
Frame Time: 0.016670
40.555605 74.037570 -115.579947 0.327127 -1.484654 -25.774072 -14.618599 13.658642 13.354202 3.430103 1.027099 3.279398 -3.724169 -0.372920 12.402847 9.138141 -0.774752 -0.727846 -111.797691 -19.058620 -90.758160 6.325925 47.325527 -103.828895 29.047838 -9.948532 -18.605446 29.917482 -5.786265 6.224760 52.794029 2.797618 63.478323 0.731932 30.528924 108.253813 -37.734418 10.546745 -1.515638 20.621740 -35.046616 1.443016 -27.896175 56.387200 26.563811 5.761263 15.304087 -1.425081 -23.736337 -29.945216 8.739931 -23.095965 6.490859 6.647471 16.459304 31.417501 4.344497 25.691852 62.569628 -18.676464 10.229861 -98.260420 15.755699
40.425119 73.118976 -115.775116 0.233866 -1.867125 -25.425082 -14.487178 14.371160 13.625444 3.598416 1.029972 3.288118 -3.548625 -0.454401 11.992278 9.098559 -0.858176 -1.287819 -112.040572 -18.726437 -90.411474 6.670619 47.433307 -104.531681 29.191522 -9.900063 -18.592318 29.901561 -6.400773 5.777059 52.265830 2.646698 62.853231 0.198032 30.398915 108.948921 -37.711254 10.606288 -1.533957 20.547111 -36.084767 1.842157 -27.988121 58.770349 26.587358 5.953765 15.134965 -1.541143 -24.291981 -30.727583 8.679772 -23.544825 5.606337 6.556515 17.464211 34.537804 3.084792 28.666779 61.875920 -18.871953 7.775109 -100.287005 15.995205
40.280656 72.173575 -115.986927 0.191981 -2.235917 -24.945591 -14.441031 15.051150 13.621669 3.468228 0.948513 3.057498 -3.381917 -0.502176 11.581555 8.704461 -1.033499 -2.032063 -112.280633 -18.340311 -90.250233 6.906537 47.480972 -105.239459 29.395345 -9.905083 -18.671809 29.946531 -6.832720 5.553871 51.873542 2.819575 62.372966 -0.251302 30.198213 109.650627 -37.657831 10.636447 -1.689197 20.470326 -37.329197 2.505367 -27.825296 61.536002 26.304117 6.063794 14.860895 -1.733319 -24.914076 -31.634079 8.705704 -23.861956 4.671662 6.554107 18.562004 37.873034 1.311151 31.772414 60.755926 -19.191558 5.411549 -102.275703 16.319841
40.129952 71.226438 -116.215075 0.222826 -2.605378 -24.290890 -14.329814 15.664800 13.490625 3.280600 0.926422 2.734356 -3.269710 -0.508372 11.184037 8.279862 -1.275543 -2.609486 -112.349140 -18.059833 -90.307224 7.128674 47.626991 -105.716971 29.509399 -9.880167 -18.631771 29.936770 -7.104600 5.303489 51.516224 3.086354 61.946647 -0.615324 30.018145 110.291723 -37.523400 10.653195 -1.877660 20.390288 -38.744593 3.397352 -27.414918 64.458401 25.529755 6.094428 14.600509 -2.105224 -25.604275 -32.512998 8.776131 -24.099482 3.756086 6.648647 19.819377 41.260377 -0.925047 34.999812 59.367089 -19.602059 3.067897 -104.114923 16.756606
39.957196 70.308026 -116.433514 0.299854 -2.909883 -23.385086 -14.200898 16.217934 13.427954 3.155948 0.972070 2.507775 -3.250587 -0.493935 10.806516 8.001552 -1.418742 -2.837952 -112.086287 -17.882723 -90.399309 7.365548 48.057877 -105.976027 29.721391 -9.900193 -18.481457 29.940250 -7.377818 5.023555 51.226900 3.274570 61.555830 -0.923978 29.663464 110.715748 -37.358717 10.629111 -2.183755 20.330767 -40.302573 4.540743 -26.490639 67.398886 24.124010 6.079420 14.336226 -2.577956 -26.482196 -33.348252 8.876034 -24.199324 2.928419 6.810538 21.264071 44.495879 -3.582528 38.318509 57.815495 -20.086237 0.761468 -105.661210 17.388900
39.785003 69.449285 -116.636275 0.252184 -3.146440 -22.621525 -14.038412 16.562094 13.379189 3.214941 0.886127 2.327572 -3.304190 -0.434859 10.446708 7.837247 -1.746432 -2.827751 -111.722456 -17.811822 -90.755264 7.578421 48.499817 -105.995479 29.961649 -9.916167 -18.200029 29.931631 -7.602585 4.791131 50.986013 3.514284 61.257685 -1.089723 29.264649 111.039519 -37.244970 10.612792 -2.382682 20.233937 -41.857793 5.743912 -24.451404 70.309803 21.817043 6.064484 14.050303 -3.000542 -27.432029 -34.126364 9.116408 -24.139707 2.187869 7.032489 22.847645 47.425924 -6.608425 41.688159 56.157819 -20.640196 -1.560938 -106.925409 18.087651
39.610767 68.661364 -116.817768 0.338728 -3.447306 -21.873780 -13.843760 16.846486 13.206636 3.164738 0.771829 2.050423 -3.338655 -0.311256 10.090614 7.379685 -2.109062 -3.001084 -111.560526 -17.472073 -91.076454 7.725298 48.727922 -105.906878 30.101286 -9.901941 -17.874986 29.860139 -7.811442 4.657799 50.674820 3.745273 61.067226 -1.196966 28.960023 111.202221 -37.037285 10.585022 -2.647863 19.965845 -43.240961 7.131519 -20.667261 73.123083 17.633844 6.112463 13.803463 -3.505068 -28.400782 -34.804452 9.316967 -24.127998 1.592632 7.373035 24.456865 50.055407 -9.885584 45.106030 54.444128 -21.246654 -3.859062 -107.865004 18.816201
39.410333 67.981905 -116.942824 0.341311 -3.400254 -21.177821 -13.893742 17.690299 13.093340 2.992832 0.852458 1.863445 -3.342141 -0.049989 9.736213 6.833769 -2.243911 -3.094106 -111.200712 -17.138347 -91.216152 7.863735 49.107663 -105.778819 30.322396 -9.878263 -17.741941 29.689852 -8.097621 4.666200 50.432303 3.764250 60.960832 -1.384503 28.634842 110.836977 -36.833742 10.552763 -2.892476 19.285034 -44.657385 8.740229 -16.271667 78.891096 12.689611 6.229784 13.481730 -4.079922 -29.316999 -35.420842 9.463151 -23.812466 0.934379 7.580698 25.993087 52.157281 -13.191240 48.557116 52.682560 -21.860097 -6.079396 -108.437067 19.546786
39.213690 67.413830 -117.037943 0.622417 -3.563679 -20.726767 -13.935165 18.028846 13.041772 2.852865 0.824603 1.764808 -3.475272 0.169960 9.420090 6.239980 -2.454907 -3.224517 -110.912785 -16.670269 -91.443051 7.912356 49.369495 -105.490189 30.548796 -9.974509 -17.486602 29.532621 -8.349992 4.716743 50.299900 3.810486 60.969226 -1.496073 28.321256 110.516176 -36.622703 10.583679 -3.102412 19.406410 -45.684451 9.301620 -16.297513 79.069651 12.497702 6.504299 13.292580 -4.533862 -30.184477 -35.846704 9.676637 -23.834722 0.592536 7.842516 27.107858 53.839632 -16.225053 52.021460 50.894260 -22.466516 -8.346705 -108.609153 20.222694
39.019660 66.974653 -117.099741 0.816099 -3.648538 -20.389090 -14.065899 18.354416 13.041632 2.803617 0.888010 1.740696 -3.700127 0.368124 9.135200 5.823405 -2.559893 -3.368649 -110.698556 -16.311527 -91.607303 7.804260 49.532043 -105.137655 30.720026 -10.047597 -17.129816 29.313150 -8.591020 4.783233 50.212450 3.819224 61.050731 -1.611111 28.073136 110.235544 -36.359184 10.624130 -3.217144 19.464844 -46.428696 9.578068 -16.302543 79.102873 12.333487 6.876974 13.152369 -4.970054 -30.963399 -36.114721 9.915999 -23.733219 0.335470 7.953654 27.740765 55.193382 -18.615920 55.482354 49.191347 -23.063679 -10.693741 -108.340679 20.850848
38.800117 66.727308 -117.110594 1.040547 -3.769321 -20.079267 -14.163324 18.478250 13.064535 2.749639 0.915627 1.764144 -3.956691 0.467535 8.871026 5.500639 -2.642866 -3.454907 -110.487203 -16.114233 -91.820077 7.592288 49.615321 -104.816199 30.755030 -10.137854 -17.074571 28.987012 -8.727728 4.887975 50.211671 3.777828 61.140739 -1.704125 27.905204 110.019444 -35.970426 10.674045 -3.442139 19.367036 -46.840088 9.736732 -16.289950 79.107394 12.186837 7.331050 13.057107 -5.405262 -31.364116 -36.138644 10.290764 -23.567621 0.358203 7.872269 27.556105 56.178705 -20.053932 58.958152 47.555141 -23.626355 -13.082234 -107.563451 21.446015
38.587839 66.605076 -117.098301 1.296249 -3.822660 -19.826391 -14.285572 18.632216 13.078239 2.685169 0.982093 1.796115 -4.261200 0.512254 8.630562 5.269138 -2.688054 -3.568520 -110.285965 -16.096837 -92.043008 7.309178 49.657005 -104.543306 30.672184 -10.223984 -17.310199 28.690514 -8.816817 4.969603 50.210404 3.741383 61.259290 -1.766210 27.833929 109.850206 -35.680840 10.695466 -3.636364 19.140526 -47.010860 9.811078 -16.220714 79.038840 12.073670 7.855576 12.982431 -5.823500 -31.608145 -36.050408 10.744312 -23.334300 0.561630 7.556820 26.484501 56.747797 -20.493865 62.467018 45.968963 -24.135570 -15.709729 -106.432229 21.731958
